<?xml version="1.0" encoding="UTF-8"?>
<svg xmlns="http://www.w3.org/2000/svg" viewBox="0 0 108 108" width="432" height="432">
  <defs>
    <linearGradient id="pinGrad" x1="40" y1="10" x2="66" y2="100" gradientUnits="userSpaceOnUse">
      <stop offset="0%" stop-color="#22D4B6"/>
      <stop offset="45%" stop-color="#13A88E"/>
      <stop offset="100%" stop-color="#0A7260"/>
    </linearGradient>
    <radialGradient id="shine" cx="0.40" cy="0.26" r="0.46">
      <stop offset="0%" stop-color="#FFFFFF" stop-opacity="0.20"/>
      <stop offset="100%" stop-color="#FFFFFF" stop-opacity="0"/>
    </radialGradient>
    <filter id="shadow">
      <feDropShadow dx="0" dy="1" stdDeviation="1.6" flood-color="#0A5045" flood-opacity="0.18"/>
    </filter>
  </defs>
  <g filter="url(#shadow)">
    <path d="M54 99 C53 92 25.5 64.5 25.5 40.5 A28.5 28.5 0 1 1 82.5 40.5 C82.5 64.5 55 92 54 99Z"
          fill="url(#pinGrad)"/>
  </g>
  <path d="M54 99 C53 92 25.5 64.5 25.5 40.5 A28.5 28.5 0 1 1 82.5 40.5 C82.5 64.5 55 92 54 99Z"
        fill="url(#shine)"/>
  <!-- Building -->
  <rect x="42" y="22" width="24" height="29" rx="1" fill="white"/>
  <rect x="41" y="20.5" width="26" height="3" rx="1.2" fill="white"/>
  <!-- Windows 2x2 -->
  <rect x="44.5" y="25" width="7.5" height="6.5" rx="1" fill="#13A88E"/>
  <rect x="56" y="25" width="7.5" height="6.5" rx="1" fill="#13A88E"/>
  <rect x="44.5" y="33.5" width="7.5" height="6.5" rx="1" fill="#13A88E"/>
  <rect x="56" y="33.5" width="7.5" height="6.5" rx="1" fill="#13A88E"/>
  <!-- Door -->
  <rect x="51" y="41.5" width="6" height="9.5" rx="1" fill="#13A88E"/>
  <!-- Text -->
  <text x="54" y="76" text-anchor="middle"
        font-family="'Segoe UI','SF Pro Display','Helvetica Neue',Arial,sans-serif"
        font-size="9.5" font-weight="800" fill="white" opacity="0.92" letter-spacing="0.2">DB·Field</text>
</svg>
